<svg xmlns="http://www.w3.org/2000/svg" xmlns:xlink="http://www.w3.org/1999/xlink" viewBox="0 0 60 75" version="1.1" x="0px" y="0px"><title>074-Scanner</title><desc>Created with Sketch.</desc><g stroke="none" stroke-width="1" fill="none" fill-rule="evenodd"><g transform="translate(1.000000, 1.000000)" stroke="#000000" stroke-width="2"><path d="M6,58 L16,57" stroke-linecap="round"/><path d="M16,54 L16,57" stroke-linecap="round"/><path d="M14,34 L11,48" stroke-linecap="round"/><path d="M27,12 L25,23" stroke-linecap="round"/><path d="M21,24 L25,23" stroke-linecap="round"/><path d="M0,18 C0.208,13.637 10.188,8 27,12" stroke-linecap="round"/><path d="M0,18 C0,20.211 2.219,22.281 5,23" stroke-linecap="round"/><path d="M14,34 C10.375,30.167 13.083,22.75 18,23" stroke-linecap="round"/><path d="M11,48 C11,51.316 13.236,54 16,54" stroke-linecap="round"/><path d="M0,54 C0,56.211 2.684,58 6,58" stroke-linecap="round"/><path d="M0,54 C0.521,43.646 2.188,31.063 5,23" stroke-linecap="round"/><path d="M0,18 L12,18" stroke-linecap="round"/><path d="M21,12 C21,15.316 16.975,18 12,18" stroke-linecap="round"/><path d="M21,24 C21,20.684 16.975,18 12,18"/><path d="M13,32 L16,32" stroke-linecap="round"/><path d="M16,32 C15.375,30.333 15.833,25.917 18,23" stroke-linecap="round"/><path d="M21,24 L18,23" stroke-linecap="round"/><path d="M7,41 C7.458,47.417 4.316,51 1,51" stroke-linecap="round"/><path d="M7,41 C6.833,36.75 10.236,34 13,34" stroke-linecap="round"/><path d="M58,18 C58,8.051 55.316,0 52,0" stroke-linecap="round"/><path d="M50,18 C50,10.262 47.316,4 44,4" stroke-linecap="round"/><path d="M42,18 C42,12.473 39.316,8 36,8" stroke-linecap="round"/><path d="M58,18 C58,27.949 55.316,36 52,36" stroke-linecap="round"/><path d="M50,18 C50,25.738 47.316,32 44,32" stroke-linecap="round"/><path d="M42,18 C42,23.527 39.316,28 36,28" stroke-linecap="round"/></g></g><text x="0" y="75" fill="#000000" font-size="5px" font-weight="bold" font-family="'Helvetica Neue', Helvetica, Arial-Unicode, Arial, Sans-serif">Created by Creaticca Creative Agency</text><text x="0" y="80" fill="#000000" font-size="5px" font-weight="bold" font-family="'Helvetica Neue', Helvetica, Arial-Unicode, Arial, Sans-serif">from the Noun Project</text></svg>