<?xml version="1.0"?>
<svg xmlns="http://www.w3.org/2000/svg" height="512px" viewBox="0 0 512 512" width="512px" class=""><g><path style="
    cursor: pointer;" d="m211 286c0 24.8125 20.1875 45 45 45s45-20.1875 45-45-20.1875-45-45-45-45 20.1875-45 45zm0 0" data-original="#000000" class="active-path" data-old_color="#000000" fill="#FFFFFF"/><path style="
    cursor: pointer;" d="m256 361c-49.628906 0-90 40.371094-90 90v61h180v-61c0-49.628906-40.371094-90-90-90zm0 0" data-original="#000000" class="active-path" data-old_color="#000000" fill="#FFFFFF"/><path style="
    cursor: pointer;" d="m136 316c0-24.8125-20.1875-45-45-45s-45 20.1875-45 45 20.1875 45 45 45 45-20.1875 45-45zm0 0" data-original="#000000" class="active-path" data-old_color="#000000" fill="#FFFFFF"/><path style="
    cursor: pointer;" d="m466 316c0-24.8125-20.1875-45-45-45s-45 20.1875-45 45 20.1875 45 45 45 45-20.1875 45-45zm0 0" data-original="#000000" class="active-path" data-old_color="#000000" fill="#FFFFFF"/><path style="
    cursor: pointer;" d="m76 0-22.820312 53.800781-53.179688 7.5 38.355469 36.433594-8.820313 53.265625 46.464844-24.285156 46.464844 24.285156-8.820313-53.265625 37.355469-36.433594-51.621094-7.5zm0 0" data-original="#000000" class="active-path" data-old_color="#000000" fill="#FFFFFF"/><path style="
    cursor: pointer;" d="m279.378906 53.800781-23.378906-53.800781-22.820312 53.800781-52.179688 7.5 37.355469 36.433594-8.820313 53.265625 46.464844-24.285156 46.464844 24.285156-8.820313-53.265625 37.355469-36.433594zm0 0" data-original="#000000" class="active-path" data-old_color="#000000" fill="#FFFFFF"/><path style="
    cursor: pointer;" d="m436 0-22.820312 53.800781-52.179688 7.5 37.355469 36.433594-8.820313 53.265625 46.464844-24.285156 46.464844 24.285156-8.820313-53.265625 38.355469-36.433594-52.621094-7.5zm0 0" data-original="#000000" class="active-path" data-old_color="#000000" fill="#FFFFFF"/><path style="
    cursor: pointer;" d="m421 391c-19.9375 0-38.183594 6.691406-53.097656 17.660156 5.019531 13.214844 8.097656 27.386719 8.097656 42.339844v61h136v-31c0-49.707031-41.292969-90-91-90zm0 0" data-original="#000000" class="active-path" data-old_color="#000000" fill="#FFFFFF"/><path style="
    cursor: pointer;" d="m0 481v31h136v-61c0-14.953125 3.078125-29.125 8.097656-42.339844-14.914062-10.96875-33.160156-17.660156-53.097656-17.660156-49.707031 0-91 40.292969-91 90zm0 0" data-original="#000000" class="active-path" data-old_color="#000000" fill="#FFFFFF"/></g> </svg>
