<?xml version="1.0" encoding="iso-8859-1"?>
<!-- Generator: Adobe Illustrator 19.0.0, SVG Export Plug-In . SVG Version: 6.00 Build 0)  -->
<svg version="1.1" id="Capa_1" xmlns="http://www.w3.org/2000/svg" xmlns:xlink="http://www.w3.org/1999/xlink" x="0px" y="0px"
	 viewBox="0 0 512.001 512.001" style="enable-background:new 0 0 512.001 512.001;" xml:space="preserve">
<g>
	<g>
		<path d="M404.054,383.278H198.553l-12.701-50.805h268.561l57.588-230.353H128.264l-20.241-80.965H0v30.159h84.475l83.292,333.168
			c-24.247,5.207-42.482,26.8-42.482,52.58c0,29.656,24.127,53.783,53.784,53.783c29.657,0,53.784-24.128,53.784-53.783
			c0-8.472-1.975-16.489-5.48-23.625H355.75c-3.505,7.136-5.48,15.153-5.48,23.625c0,29.656,24.128,53.783,53.784,53.783
			s53.784-24.128,53.784-53.783C457.837,407.406,433.709,383.278,404.054,383.278z"/>
	</g>
</g>
<g>
</g>
<g>
</g>
<g>
</g>
<g>
</g>
<g>
</g>
<g>
</g>
<g>
</g>
<g>
</g>
<g>
</g>
<g>
</g>
<g>
</g>
<g>
</g>
<g>
</g>
<g>
</g>
<g>
</g>
</svg>
