<?xml version="1.0" encoding="iso-8859-1"?>
<!-- Generator: Adobe Illustrator 19.0.0, SVG Export Plug-In . SVG Version: 6.00 Build 0)  -->
<svg version="1.1" id="Capa_1" xmlns="http://www.w3.org/2000/svg" xmlns:xlink="http://www.w3.org/1999/xlink" x="0px" y="0px"
	 viewBox="0 0 512 512" style="enable-background:new 0 0 512 512;" xml:space="preserve">
<g>
	<g>
		<path d="M256,150c-24.814,0-45,20.186-45,45c0,24.814,20.186,45,45,45c24.814,0,45-20.186,45-45C301,170.186,280.814,150,256,150z
			"/>
	</g>
</g>
<g>
	<g>
		<path d="M256,0c-38.668,0-74.652,11.453-105,30.947V195c0,57.891,47.109,105,105,105s105-47.109,105-105V30.947
			C330.652,11.453,294.668,0,256,0z M256,60c8.284,0,15,6.714,15,15c0,8.284-6.716,15-15,15s-15-6.716-15-15
			C241,66.714,247.716,60,256,60z M256,270c-41.367,0-75-33.647-75-75c0-41.353,33.633-75,75-75s75,33.647,75,75
			C331,236.353,297.367,270,256,270z"/>
	</g>
</g>
<g>
	<g>
		<path d="M376,452h-75v-67.451C386.862,364.153,451,287.01,451,195c0-55.128-23.097-104.883-60-140.383V195
			c0,74.443-60.557,135-135,135s-135-60.557-135-135V54.617C84.097,90.117,61,139.872,61,195c0,92.01,64.136,169.153,150,189.549
			V452h-75c-24.814,0-45,20.186-45,45c0,8.291,6.709,15,15,15h300c8.291,0,15-6.709,15-15C421,472.186,400.814,452,376,452z"/>
	</g>
</g>
<g>
</g>
<g>
</g>
<g>
</g>
<g>
</g>
<g>
</g>
<g>
</g>
<g>
</g>
<g>
</g>
<g>
</g>
<g>
</g>
<g>
</g>
<g>
</g>
<g>
</g>
<g>
</g>
<g>
</g>
</svg>
