<?xml version="1.0"?>
<svg xmlns="http://www.w3.org/2000/svg" xmlns:xlink="http://www.w3.org/1999/xlink" version="1.1" id="Capa_1" x="0px" y="0px" viewBox="0 0 469.333 469.333" style="enable-background:new 0 0 469.333 469.333;" xml:space="preserve" width="512px" height="512px" class=""><g><g>
	<g>
		<g>
			<path d="M42.667,85.333H0v341.333c0,23.573,19.093,42.667,42.667,42.667H384v-42.667H42.667V85.333z" data-original="#000000" class="active-path" data-old_color="#000000" fill="#FFFFFF"/>
			<polygon points="277.333,298.667 320,298.667 320,85.333 234.667,85.333 234.667,128 277.333,128    " data-original="#000000" class="active-path" data-old_color="#000000" fill="#FFFFFF"/>
			<path d="M426.667,0H128c-23.573,0-42.667,19.093-42.667,42.667v298.667C85.333,364.907,104.427,384,128,384h298.667     c23.573,0,42.667-19.093,42.667-42.667V42.667C469.333,19.093,450.24,0,426.667,0z M426.667,341.333H128V42.667h298.667V341.333z     " data-original="#000000" class="active-path" data-old_color="#000000" fill="#FFFFFF"/>
		</g>
	</g>
</g></g> </svg>
